<svg xmlns="http://www.w3.org/2000/svg" xmlns:xlink="http://www.w3.org/1999/xlink"
                            width="540.5px" height="364.5px">
                            <path fill-rule="evenodd" stroke="rgb(101, 210, 255)" stroke-width="1px"
                                stroke-linecap="butt" stroke-linejoin="miter" fill="none"
                                d="M328.500,97.500 L332.500,93.500 C332.500,93.500 333.243,89.500 333.500,86.500 C333.757,83.500 330.500,79.900 333.500,78.500 C336.500,77.100 340.043,71.900 342.500,70.500 C344.957,69.100 345.814,66.871 349.500,66.500 C353.186,66.129 358.729,62.986 359.500,58.500 C360.271,54.014 364.100,53.386 365.500,54.500 C366.900,55.614 372.557,51.500 373.500,51.500 C374.443,51.500 377.128,54.643 377.500,56.500 C377.871,58.357 382.729,59.671 383.500,56.500 C384.271,53.329 385.871,51.214 388.500,52.500 C391.129,53.786 395.071,54.586 395.500,53.500 C395.929,52.414 400.671,50.414 401.500,46.500 C402.328,42.586 404.386,37.957 404.500,36.500 C404.614,35.043 403.243,31.214 404.500,30.500 C405.757,29.786 408.500,26.500 408.500,26.500 C408.500,26.500 409.414,23.329 412.500,24.500 C415.586,25.671 415.071,27.957 413.500,27.500 C411.928,27.043 417.014,27.443 419.500,24.500 C421.986,21.557 425.129,23.500 425.500,21.500 C425.871,19.500 425.471,13.957 427.500,16.500 C429.528,19.043 429.986,23.786 428.500,24.500 C427.014,25.214 420.271,30.586 426.500,29.500 C432.728,28.414 434.786,29.157 436.500,30.500 C438.214,31.843 448.500,35.500 448.500,35.500 C448.500,35.500 448.157,40.071 450.500,39.500 C452.843,38.929 452.386,40.986 456.500,39.500 C460.614,38.014 462.271,39.043 463.500,41.500 C464.729,43.957 468.386,47.100 472.500,48.500 C476.614,49.900 479.243,47.043 482.500,49.500 C485.757,51.957 486.100,55.043 486.500,57.500 C486.900,59.957 483.586,58.243 482.500,61.500 C481.414,64.757 486.900,65.500 488.500,66.500 C490.100,67.500 496.729,67.271 496.500,71.500 C496.271,75.729 489.129,75.329 489.500,78.500 C489.871,81.671 492.386,79.386 492.500,83.500 C492.614,87.614 488.157,84.700 486.500,86.500 C484.843,88.300 482.500,93.500 482.500,93.500 C482.500,93.500 478.614,95.443 481.500,98.500 C484.386,101.557 490.500,100.586 489.500,108.500 C488.500,116.414 484.500,115.500 484.500,115.500 C484.500,115.500 477.814,117.500 479.500,120.500 C481.186,123.500 483.414,128.186 481.500,129.500 C479.586,130.814 479.500,135.500 479.500,135.500 C479.500,135.500 477.357,136.300 479.500,139.500 C481.643,142.700 478.500,144.500 478.500,144.500 C478.500,144.500 475.871,149.157 477.500,150.500 C479.129,151.843 478.214,153.329 476.500,153.500 C474.786,153.671 469.500,151.500 469.500,151.500 L466.500,152.500 C466.500,152.500 462.843,153.271 465.500,154.500 C468.157,155.729 466.729,161.157 469.500,160.500 C472.271,159.843 471.357,155.214 476.500,156.500 C481.643,157.786 481.528,154.186 482.500,154.500 C483.471,154.814 486.271,159.900 487.500,162.500 C488.729,165.100 489.986,165.329 486.500,167.500 C483.014,169.671 477.500,175.500 477.500,175.500 C477.500,175.500 469.871,177.843 470.500,180.500 C471.129,183.157 471.300,187.043 469.500,187.500 C467.700,187.957 462.500,186.500 462.500,186.500 L458.500,183.500 C458.500,183.500 455.129,184.014 456.500,184.500 C457.871,184.986 461.500,189.500 461.500,189.500 L467.500,191.500 C467.500,191.500 468.957,195.043 466.500,195.500 C464.043,195.957 460.500,195.500 460.500,195.500 L451.500,188.500 C451.500,188.500 448.386,190.643 450.500,192.500 C452.614,194.357 456.500,198.500 456.500,198.500 C456.500,198.500 459.700,202.129 464.500,203.500 C469.300,204.871 477.500,216.500 477.500,216.500 L484.500,221.500 C484.500,221.500 488.614,224.071 490.500,223.500 C492.386,222.929 495.071,221.900 497.500,225.500 C499.929,229.100 503.757,235.729 505.500,235.500 C507.243,235.271 507.014,240.129 504.500,242.500 C501.986,244.871 498.271,249.729 501.500,250.500 C504.729,251.271 502.271,258.986 507.500,260.500 C512.729,262.014 515.129,257.671 518.500,255.500 C521.871,253.329 523.414,257.157 525.500,256.500 C527.586,255.843 532.500,250.500 532.500,250.500 C532.500,250.500 530.443,243.443 534.500,244.500 C538.557,245.557 539.186,250.586 537.500,251.500 C535.814,252.414 534.500,254.500 534.500,254.500 C534.500,254.500 534.500,259.043 531.500,259.500 C528.500,259.957 524.557,260.700 525.500,262.500 C526.443,264.300 526.957,268.643 531.500,267.500 C536.043,266.357 539.471,271.957 536.500,273.500 C533.528,275.043 531.414,280.414 529.500,281.500 C527.586,282.586 524.100,280.814 525.500,286.500 C526.900,292.186 525.500,297.500 525.500,297.500 C525.500,297.500 526.614,302.300 529.500,302.500 C532.386,302.700 535.643,308.529 535.500,309.500 C535.357,310.471 539.129,314.071 538.500,316.500 C537.871,318.929 534.500,322.500 534.500,322.500 C534.500,322.500 535.128,325.386 532.500,326.500 C529.871,327.614 529.586,321.329 525.500,321.500 C521.414,321.671 520.157,322.129 518.500,319.500 C516.843,316.871 515.986,316.700 515.500,318.500 C515.014,320.300 512.443,321.900 509.500,319.500 C506.557,317.100 501.500,316.500 501.500,316.500 L498.500,314.500 L493.500,314.500 C493.500,314.500 487.643,311.557 487.500,308.500 C487.357,305.443 482.500,299.500 481.500,299.500 C480.500,299.500 475.128,299.900 474.500,296.500 C473.871,293.100 473.643,291.043 468.500,291.500 C463.357,291.957 459.243,290.871 456.500,290.500 C453.757,290.129 450.386,285.100 447.500,287.500 C444.614,289.900 437.128,293.900 435.500,293.500 C433.871,293.100 428.443,290.129 427.500,291.500 C426.557,292.871 416.500,295.500 416.500,295.500 C416.500,295.500 413.450,290.964 411.500,291.500 C409.550,292.036 404.146,289.558 405.500,292.500 C406.854,295.442 403.668,295.403 401.500,294.500 C399.331,293.597 399.165,288.693 393.500,291.500 C387.835,294.307 383.126,291.248 382.500,291.500 C381.874,291.752 380.945,288.835 378.500,291.500 C376.055,294.165 371.500,295.500 371.500,295.500 L366.500,302.500 C366.500,302.500 364.338,308.089 367.500,309.500 C370.662,310.911 371.654,310.554 373.500,313.500 C375.346,316.446 373.216,318.877 373.500,320.500 C373.784,322.123 377.370,325.085 376.500,328.500 C375.629,331.915 371.899,330.388 370.500,332.500 C369.101,334.612 367.873,336.428 366.500,338.500 C365.127,340.572 362.500,341.500 362.500,341.500 C362.500,341.500 362.402,343.899 360.500,345.500 C358.598,347.100 353.924,345.744 352.500,345.500 C351.076,345.256 348.500,344.500 348.500,344.500 C348.500,344.500 350.763,340.685 349.500,338.500 C348.237,336.315 345.859,336.415 343.500,337.500 C341.141,338.585 340.104,337.563 337.500,338.500 C334.896,339.437 334.955,340.028 334.500,342.500 C334.045,344.972 331.058,348.635 329.500,349.500 C327.942,350.365 328.632,353.384 328.500,354.500 C328.368,355.616 328.013,360.559 324.500,360.500 C320.987,360.441 317.238,356.120 314.500,357.500 C311.762,358.880 313.922,361.566 310.500,361.500 C307.078,361.434 306.450,363.566 303.500,362.500 C300.550,361.434 297.500,360.500 297.500,360.500 C297.500,360.500 292.966,363.952 292.500,359.500 C292.034,355.048 292.243,351.358 291.500,351.500 C290.757,351.642 288.500,351.500 288.500,351.500 C288.500,351.500 285.766,345.629 284.500,347.500 C283.234,349.371 285.752,350.932 283.500,351.500 C281.247,352.068 282.888,354.533 281.500,355.500 C280.112,356.467 274.255,351.668 272.500,353.500 C270.745,355.332 267.500,351.500 267.500,351.500 L259.500,347.500 C259.500,347.500 260.874,342.415 258.500,340.500 C256.126,338.585 251.854,340.659 252.500,336.500 C253.146,332.341 251.054,328.504 245.500,329.500 C239.946,330.496 240.757,330.840 239.500,334.500 C238.243,338.160 237.500,345.500 237.500,345.500 L215.500,341.500 L216.500,332.500 C216.500,332.500 212.227,328.903 217.500,327.500 C222.773,326.097 220.613,320.296 218.500,320.500 C216.386,320.704 213.439,321.458 212.500,322.500 C211.561,323.542 207.103,327.458 205.500,325.500 C203.897,323.542 199.090,319.910 200.500,323.500 C201.910,327.090 202.780,327.355 200.500,328.500 C198.220,329.645 194.500,337.500 194.500,337.500 C194.500,337.500 187.940,345.589 183.500,344.500 C179.059,343.411 175.849,345.679 170.500,340.500 C165.150,335.321 163.488,340.299 158.500,341.500 C153.512,342.701 146.532,343.989 142.500,341.500 C138.468,339.011 130.183,340.530 129.500,337.500 C128.817,334.470 126.841,329.781 123.500,329.500 C120.159,329.219 120.402,327.032 119.500,325.500 C118.598,323.968 115.950,323.626 115.500,325.500 C115.050,327.374 112.904,329.768 110.500,328.500 C108.095,327.232 100.500,323.500 100.500,323.500 C100.500,323.500 93.523,322.709 93.500,320.500 C93.477,318.291 90.632,318.026 89.500,320.500 C88.368,322.974 86.168,320.012 84.500,320.500 C82.832,320.987 75.987,320.940 76.500,315.500 C77.013,310.060 79.174,307.805 81.500,309.500 C83.826,311.195 85.510,307.224 88.500,308.500 C91.490,309.776 95.833,307.495 96.500,307.500 C97.167,307.505 103.588,304.719 103.500,301.500 C103.412,298.280 98.621,293.261 103.500,293.500 C108.379,293.739 109.782,290.796 110.500,289.500 C111.218,288.204 108.841,285.027 114.500,282.500 C120.159,279.973 121.500,273.500 121.500,273.500 C121.500,273.500 118.956,272.806 117.500,270.500 C116.043,268.194 110.531,264.754 113.500,262.500 C116.469,260.246 120.996,259.863 121.500,257.500 C122.004,255.137 113.227,257.269 113.500,254.500 C113.773,251.731 116.500,243.500 116.500,243.500 C116.500,243.500 111.756,244.777 109.500,243.500 C107.244,242.223 96.500,236.500 96.500,236.500 C96.500,236.500 105.743,200.320 105.500,197.500 C105.257,194.680 102.272,189.920 100.500,194.500 C98.728,199.079 95.794,199.482 93.500,198.500 C91.206,197.518 92.438,191.623 86.500,194.500 C80.561,197.376 81.651,194.359 75.500,197.500 C69.349,200.641 66.500,198.500 66.500,198.500 C66.500,198.500 60.153,197.894 59.500,196.500 C58.846,195.106 57.121,195.623 55.500,196.500 C53.879,197.376 48.772,197.043 46.500,196.500 C44.228,195.957 38.823,196.267 34.500,191.500 C30.177,186.733 25.919,183.815 24.500,183.500 C23.081,183.185 19.299,183.634 17.500,180.500 C15.700,177.366 14.086,180.472 9.500,177.500 C4.914,174.528 4.060,176.238 2.500,168.500 C0.940,160.761 -0.185,157.503 3.500,157.500 C7.185,157.497 9.119,156.005 9.500,151.500 C9.881,146.995 15.500,140.500 15.500,140.500 C15.500,140.500 18.848,140.751 15.500,135.500 C12.152,130.249 8.151,129.408 11.500,125.500 C14.849,121.592 9.029,118.233 13.500,117.500 C17.971,116.767 23.500,112.500 23.500,112.500 C23.500,112.500 21.107,105.019 25.500,105.500 C29.893,105.981 38.475,101.224 40.500,97.500 C42.525,93.776 46.500,82.500 46.500,82.500 L43.500,74.500 C43.500,74.500 45.366,71.053 46.500,69.500 C47.634,67.947 50.488,63.737 47.500,63.500 C44.512,63.263 44.695,59.968 49.500,57.500 C54.305,55.032 60.500,53.500 60.500,53.500 C60.500,53.500 69.238,56.496 70.500,52.500 C71.762,48.504 68.631,44.186 67.500,44.500 C66.369,44.814 72.500,37.500 72.500,37.500 C72.500,37.500 71.884,31.371 77.500,30.500 C83.116,29.629 86.593,24.764 84.500,24.500 C82.407,24.236 81.200,24.002 84.500,20.500 C87.800,16.998 89.962,14.428 92.500,15.500 C95.038,16.572 101.833,17.550 99.500,15.500 C97.167,13.450 92.233,15.098 92.500,12.500 C92.767,9.902 93.536,3.471 94.500,2.500 C95.464,1.529 101.175,-0.374 103.500,1.500 C105.825,3.374 106.505,4.775 109.500,4.500 C112.495,4.225 117.705,4.890 119.500,2.500 C121.295,0.110 123.718,0.362 123.500,3.500 C123.282,6.638 122.312,8.091 124.500,8.500 C126.688,8.909 128.803,4.814 132.500,7.500 C136.197,10.186 141.435,9.807 143.500,9.500 C145.564,9.192 154.507,9.266 155.500,11.500 C156.493,13.734 161.140,16.712 163.500,16.500 C165.860,16.288 167.786,18.853 172.500,17.500 C177.214,16.146 176.650,19.913 177.500,22.500 C178.350,25.087 178.611,25.939 175.500,27.500 C172.389,29.061 171.500,32.500 171.500,32.500 C171.500,32.500 170.056,35.282 172.500,36.500 C174.943,37.718 177.799,36.302 178.500,38.500 C179.201,40.698 176.547,42.599 180.500,42.500 C184.453,42.401 186.857,44.909 187.500,45.500 C188.143,46.091 188.754,41.605 191.500,42.500 C194.246,43.395 194.948,42.599 198.500,42.500 C202.052,42.401 203.555,40.612 205.500,42.500 C207.445,44.388 211.323,43.269 213.500,39.500 C215.677,35.731 218.653,37.295 220.500,38.500 C222.347,39.705 223.500,44.500 223.500,44.500 C223.500,44.500 227.569,48.354 229.500,48.500 C231.431,48.646 232.163,49.308 233.500,45.500 C234.837,41.692 234.912,39.721 237.500,39.500 C240.088,39.279 245.389,34.302 246.500,37.500 C247.611,40.698 241.802,42.895 243.500,43.500 C245.198,44.104 247.531,43.361 247.500,46.500 C247.469,49.639 247.500,57.500 247.500,57.500 C247.500,57.500 252.319,58.988 255.500,58.500 C258.681,58.012 258.939,62.446 262.500,62.500 C266.061,62.554 269.262,63.750 270.500,64.500 C271.738,65.250 278.449,65.918 278.500,67.500 C278.551,69.082 279.075,72.169 283.500,68.500 C287.925,64.831 290.500,64.500 290.500,64.500 C290.500,64.500 296.179,60.304 299.500,61.500 C302.821,62.696 305.470,62.911 304.500,65.500 C303.530,68.089 304.218,70.654 306.500,71.500 C308.781,72.346 313.135,71.119 315.500,74.500 C317.865,77.881 319.548,79.571 317.500,80.500 C315.452,81.429 310.373,83.326 310.500,85.500 C310.627,87.673 307.251,91.650 310.500,92.500 C313.749,93.350 313.974,95.392 314.500,96.500 C315.026,97.608 317.316,97.108 320.500,97.500 C323.684,97.892 328.500,97.500 328.500,97.500 Z" />
                        </svg>